<?xml version="1.0" standalone="yes"?>
<svg xmlns="http://www.w3.org/2000/svg" width="800" height="391">
<path style="fill:#030405; stroke:none;" d="M0 0L0 391L800 391L800 0L0 0z"/>
<path style="fill:#0248fe; stroke:none;" d="M165 66L166 67L165 66z"/>
<path style="fill:#52ccc8; stroke:none;" d="M225 273L226 273C238.352 288.308 274.498 311.863 293.996 296.606C312.005 282.514 309.129 247.382 303 228C322.637 223.895 357.546 206.927 356.87 183C356.21 159.621 322.465 143.503 303 139C306.622 120.325 311.013 92.6737 299.2 76.0038C281.62 51.1978 239.445 76.4113 226 94C207.196 76.0158 158.481 45.1992 146.746 87C143.474 98.6552 144.215 110.139 145.089 122C145.39 126.088 148.737 133.869 146.799 137.581C144.588 141.815 133.253 143.967 129 145.861C113.826 152.619 93.1586 164.958 93.554 184C93.9485 202.992 114.817 214.844 130 221.688C134.336 223.643 144.421 225.079 146.882 229.419C148.932 233.035 145.767 241.929 145.285 246C144.023 256.668 143.903 269.684 147.039 280C158.665 318.239 208.524 295.907 225 273z"/>
<path style="fill:#0248fe; stroke:none;" d="M270 66L271 67L270 66M267 67L268 68L267 67M264 68L265 69L264 68M292 69L293 70L292 69M195 72L196 73L195 72z"/>
<path style="fill:#d00231; stroke:none;" d="M323 112C324.19 121.42 322.88 142.188 328.603 149.671C337.567 161.391 354.851 164.308 356.66 182C358.274 197.786 341.995 201.996 336.042 213.174C334.416 216.228 335.77 220.722 336.075 224C336.925 233.147 336.981 244.14 339.724 252.907C341.527 258.67 350.073 261.618 355 264.219C368.794 271.502 382.296 279.317 396 286.769C405.845 292.123 419.817 303.973 431 305.289C437.725 306.08 447.262 297.828 453 294.78C469.805 285.854 486.283 276.321 503 267.231C508.651 264.158 519.574 260.429 522.976 254.787C527.111 247.931 526.456 234.833 527.086 227C528.474 209.722 530.306 192.19 532.159 175C533.74 160.326 535.379 145.64 537.282 131C537.855 126.586 540.633 117.401 537.971 113.499C535.279 109.552 527.23 108.493 523 106.947C510.03 102.207 496.969 97.7229 484 92.9822C471.279 88.3319 458.909 82.6936 446 78.3326C440.065 76.3277 434.399 73.1556 428 74.7616C392.331 83.7133 357.997 100.612 323 112z"/>
<path style="fill:#0248fe; stroke:none;" d="M249 75L250 76L249 75M246 77L247 78L246 77M207 79L208 80L207 79z"/>
<path style="fill:#030405; stroke:none;" d="M162 135C171.767 132.473 183.705 133.022 192.96 129.258C199.546 126.581 204.78 116.304 209.285 111C211.062 108.907 214.47 106.16 213.654 103.039C212.67 99.2718 206.918 96.0802 204 93.8951C195.556 87.5722 177.074 74.3915 166.055 81.7423C157.525 87.432 157.305 103.918 158.17 113C158.867 120.327 159.405 128.073 162 135M290 135C291.134 120.657 299.165 93.4542 285.892 82.3179C275.193 73.3415 255.515 87.4723 247 93.7346C244.019 95.9269 237.214 99.7524 237.207 104.004C237.2 108.072 243.475 113.061 245.919 116C249.244 119.999 252.565 126.232 257.174 128.821C265.448 133.469 280.569 133.171 290 135z"/>
<path style="fill:#0248fe; stroke:none;" d="M266 82L267 83L266 82M286 82L287 83L286 82z"/>
<path style="fill:#52ccc8; stroke:none;" d="M473 82C477.597 97.466 509.31 102.007 523 107.192C527.331 108.833 535.474 109.889 537.958 114.225C540.502 118.666 537.531 128.088 537.075 133C535.602 148.84 528.875 169.331 532.394 185C535.28 197.855 547.204 211.572 553.719 223C569.893 251.37 584.815 282.592 604 309L605 309L631.446 264L693.333 157L721.403 109L736 82L699 82L683.39 83.0278L676.15 94L661.603 119L605 217L584.576 183L546.603 118L532.719 94L525.61 83.0278L510 82L473 82z"/>
<path style="fill:#0248fe; stroke:none;" d="M526 82C539.656 114.791 562.127 146.528 580.4 177C587.722 189.21 594.147 207.765 605 217L653.424 134L683 82L649 82L634.39 82.6034L625.579 96L605 132L584 97L574.787 83.0278L560 82L526 82M215 85L216 86L215 85M258 86L259 87L258 86M161 87L162 88L161 87M256 87L257 88L256 87M229 90L230 91L229 90M250 91L251 92L250 91M479 91L480 92L479 91M145 92L146 93L145 92M482 92L483 93L482 92M204 94L205 95L204 94M493 96L494 97L493 96M496 97L497 98L496 97z"/>
<path style="fill:#fefafb; stroke:none;" d="M431 101C416.914 135.333 401.142 169.256 385.691 203C378.924 217.779 367.849 235.018 365 251C371.036 251 385.821 253.704 390.006 248.682C396.209 241.241 396.61 218.068 408.005 217.059C419.811 216.013 432.144 217 444 217C448.251 217 454.993 215.752 458.775 218.028C468.266 223.736 465.072 242.573 473.699 248.972C478.515 252.544 492.121 250 498 250C487.892 214.64 467.429 179.547 452.306 146C446.303 132.684 441.332 111.311 431 101z"/>
<path style="fill:#0248fe; stroke:none;" d="M507 101L508 102L507 101M510 102L511 103L510 102M521 106L522 107L521 106z"/>
<path style="fill:#52ccc8; stroke:none;" d="M435 108L436 109L435 108z"/>
<path style="fill:#0248fe; stroke:none;" d="M721 108L722 109L721 108M535 111L536 112L535 111M292 113L293 114L292 113z"/>
<path style="fill:#030405; stroke:none;" d="M225 114L213 128L238 128L225 114z"/>
<path style="fill:#52ccc8; stroke:none;" d="M439 117L440 118L439 117z"/>
<path style="fill:#0248fe; stroke:none;" d="M200 121L201 122L200 121M233 122L234 123L233 122M159 124L160 125L159 124M711 125L712 126L711 125M254 126L255 127L254 126z"/>
<path style="fill:#52ccc8; stroke:none;" d="M443 126L444 127L443 126z"/>
<path style="fill:#0248fe; stroke:none;" d="M537 129L538 130L537 129M264 130L265 131L264 130M707 132L708 133L707 132M163 134L164 135L163 134M287 134L288 135L287 134z"/>
<path style="fill:#52ccc8; stroke:none;" d="M447 135L448 136L447 135z"/>
<path style="fill:#0248fe; stroke:none;" d="M536.333 137.667L536.667 138.333L536.333 137.667z"/>
<path style="fill:#030405; stroke:none;" d="M207 142.444C198.48 143.934 194.781 153.153 190.85 160C187.123 166.492 180.27 175.393 179.576 183C178.676 192.856 193.461 215.114 200.379 221.686C208.004 228.93 236.234 226.323 245.96 224.227C252.949 222.72 256.504 213.602 259.939 208C263.875 201.583 271.453 191.679 271.972 184C272.226 180.242 269.398 176.21 267.742 173C263.241 164.28 257.751 151.063 250.24 144.6C247.182 141.968 241.81 142.049 238 142.004C228.008 141.885 216.856 140.72 207 142.444z"/>
<path style="fill:#52ccc8; stroke:none;" d="M451 144L452 145L451 144z"/>
<path style="fill:#030405; stroke:none;" d="M165 148L171 167L172 167L184 145L165 148M268 145L280 166L286 148L268 145z"/>
<path style="fill:#0248fe; stroke:none;" d="M535.333 145.667L535.667 146.333L535.333 145.667M699 146L700 147L699 146z"/>
<path style="fill:#d00231; stroke:none;" d="M431 150L413 196L451 196C447.446 183.006 440.379 159.665 431 150z"/>
<path style="fill:#030405; stroke:none;" d="M151 152C137.34 158.388 112.267 163.963 107.843 181C106.265 187.078 110.898 192.475 115.09 196.245C125.436 205.55 138.953 210.755 152 215C154.731 205.375 161.99 193.845 162.486 184C162.878 176.225 155.163 158.625 151 152M299 152L288.603 184L299 214C307.427 213.264 328.99 206.475 332.382 197.816C334.262 193.017 331.491 185.04 331.086 180C330.763 175.991 331.184 169.882 328.973 166.379C323.942 158.406 307.433 154.744 299 152z"/>
<path style="fill:#0248fe; stroke:none;" d="M272 153L273 154L272 153M284 153L285 154L284 153z"/>
<path style="fill:#52ccc8; stroke:none;" d="M455 153L456 154L455 153z"/>
<path style="fill:#0248fe; stroke:none;" d="M534 154L535 155L534 154M694 154L695 155L694 154z"/>
<path style="fill:#52ccc8; stroke:none;" d="M434 155L435 156L434 155z"/>
<path style="fill:#0248fe; stroke:none;" d="M137 157L138 158L137 157M192 157L193 158L192 157z"/>
<path style="fill:#52ccc8; stroke:none;" d="M222 158.44C188.983 163.49 197.261 214.41 230 208.671C261.839 203.09 254.005 153.544 222 158.44z"/>
<path style="fill:#0248fe; stroke:none;" d="M229 158L230 159L229 158M260 160L261 161L260 160M154 161L155 162L154 161z"/>
<path style="fill:#52ccc8; stroke:none;" d="M459 162L460 163L459 162z"/>
<path style="fill:#0248fe; stroke:none;" d="M533 163L534 164L533 163M155 164L156 165L155 164M207 165L208 166L207 165z"/>
<path style="fill:#d00231; stroke:none;" d="M330 166L333 199C349.856 191.134 345.889 172.156 330 166z"/>
<path style="fill:#0248fe; stroke:none;" d="M294 167L295 168L294 167z"/>
<path style="fill:#52ccc8; stroke:none;" d="M439 167L440 168L439 167z"/>
<path style="fill:#0248fe; stroke:none;" d="M98 168L99 169L98 168M293 169L294 170L293 169z"/>
<path style="fill:#52ccc8; stroke:none;" d="M463 171L464 172L463 171z"/>
<path style="fill:#0248fe; stroke:none;" d="M532 172L533 173L532 172M181 177L182 178L181 177z"/>
<path style="fill:#52ccc8; stroke:none;" d="M444 179L445 180L444 179z"/>
<path style="fill:#0248fe; stroke:none;" d="M93 180L94 181L93 180z"/>
<path style="fill:#52ccc8; stroke:none;" d="M467 180L468 181L467 180z"/>
<path style="fill:#0248fe; stroke:none;" d="M531.333 180.667L531.667 181.333L531.333 180.667M93 182L93 185L94 185L93 182z"/>
<path style="fill:#52ccc8; stroke:none;" d="M446 184L447 185L446 184z"/>
<path style="fill:#0248fe; stroke:none;" d="M93 186L94 187L93 186z"/>
<path style="fill:#52ccc8; stroke:none;" d="M471 189L472 190L471 189M449 191L450 192L449 191z"/>
<path style="fill:#0248fe; stroke:none;" d="M538 196L539 197L538 196z"/>
<path style="fill:#52ccc8; stroke:none;" d="M475 198L476 199L475 198z"/>
<path style="fill:#030405; stroke:none;" d="M171 201L166 219L184 222L171 201z"/>
<path style="fill:#0248fe; stroke:none;" d="M243 201L244 202L243 201z"/>
<path style="fill:#030405; stroke:none;" d="M279 201L268 222L286 218L279 201z"/>
<path style="fill:#0248fe; stroke:none;" d="M281 204L282 205L281 204M665 204L666 205L665 204M544 206L545 207L544 206M664 206L665 207L664 206M663 208L664 209L663 208M298 211L299 212L298 211M284 213L285 214L284 213M195 214L196 215L195 214M549 215L550 216L549 215z"/>
<path style="fill:#52ccc8; stroke:none;" d="M483 216L484 217L483 216z"/>
<path style="fill:#0248fe; stroke:none;" d="M165 217L166 218L165 217M197 217L198 218L197 217M329 217L330 218L329 217M285 218L286 219L285 218M657 218L658 219L657 218M280 219L281 220L280 219M174 220L175 221L174 220M250 222L251 223L250 222M205 224L206 225L205 224M653 225L654 226L653 225M305 227L306 228L305 227z"/>
<path style="fill:#030405; stroke:none;" d="M162 232C158.365 244.936 156.96 259.737 159.468 273C160.566 278.81 163.58 285.606 170.001 286.772C187.681 289.982 203.03 272.868 216 264C210.857 256.611 201.792 242.329 193.907 238.028C186.07 233.754 170.984 233.742 162 232M290 232C281.216 233.134 264.736 233.78 257.174 238.028C252.579 240.609 249.385 247.055 245.999 251C243.559 253.844 236.223 259.727 237.346 263.91C238.324 267.556 244.166 270.818 247 272.961C255.413 279.322 277.215 294.429 287.211 283.606C298.527 271.352 291.836 246.449 290 232z"/>
<path style="fill:#0248fe; stroke:none;" d="M559 232L560 233L559 232M161 233L162 234L161 233M304 234L305 235L304 234z"/>
<path style="fill:#52ccc8; stroke:none;" d="M491 234L492 235L491 234z"/>
<path style="fill:#0248fe; stroke:none;" d="M178 235L179 236L178 235M185 236L186 237L185 236M160 237L161 238L160 237z"/>
<path style="fill:#030405; stroke:none;" d="M213 239L227 253L238 239L213 239z"/>
<path style="fill:#52ccc8; stroke:none;" d="M495 243L496 244L495 243z"/>
<path style="fill:#0248fe; stroke:none;" d="M145 244L146 245L145 244M199 244L200 245L199 244M200 245L201 246L200 245M218 245L219 246L218 245M248 248L249 249L248 248M228 250L229 251L228 250z"/>
<path style="fill:#52ccc8; stroke:none;" d="M474 250L474 251L498 251L474 250z"/>
<path style="fill:#0248fe; stroke:none;" d="M573 256L574 257L573 256M578 265L579 266L578 265M208 269L209 270L208 269M581 270L582 271L581 270M625 273L626 274L625 273M584 275L585 276L584 275M255 278L256 279L255 278M218 279L219 280L218 279M621 280L622 281L621 280M149 286L150 287L149 286M152 291L153 292L152 291M253 293L254 294L253 293M609 301L610 302L609 301z"/>
</svg>
